<?xml version="1.0" encoding="UTF-8" standalone="no"?>
<svg
   xmlns:dc="http://purl.org/dc/elements/1.1/"
   xmlns:cc="http://creativecommons.org/ns#"
   xmlns:rdf="http://www.w3.org/1999/02/22-rdf-syntax-ns#"
   xmlns:svg="http://www.w3.org/2000/svg"
   xmlns="http://www.w3.org/2000/svg"
   width="30"
   height="30"
   viewBox="0 0 7.9374995 7.9374995"
   version="1.1"
   id="svg8">
  <defs
     id="defs2" />
  <metadata
     id="metadata5">
    <rdf:RDF>
      <cc:Work
         rdf:about="">
        <dc:format>image/svg+xml</dc:format>
        <dc:type
           rdf:resource="http://purl.org/dc/dcmitype/StillImage" />
        <dc:title></dc:title>
      </cc:Work>
    </rdf:RDF>
  </metadata>
  <g
     transform="translate(0,-289.0625)"
     id="layer1">
    <g
       id="g4730"
       transform="matrix(0.0978462,0,0,0.0978462,118.19321,44.624056)" />
    <g
       id="g4732"
       transform="matrix(0.0978462,0,0,0.0978462,118.19321,44.624056)" />
    <g
       id="g4734"
       transform="matrix(0.0978462,0,0,0.0978462,118.19321,44.624056)" />
    <g
       id="g4736"
       transform="matrix(0.0978462,0,0,0.0978462,118.19321,44.624056)" />
    <g
       id="g4738"
       transform="matrix(0.0978462,0,0,0.0978462,118.19321,44.624056)" />
    <g
       id="g4740"
       transform="matrix(0.0978462,0,0,0.0978462,118.19321,44.624056)" />
    <g
       id="g4742"
       transform="matrix(0.0978462,0,0,0.0978462,118.19321,44.624056)" />
    <g
       id="g4744"
       transform="matrix(0.0978462,0,0,0.0978462,118.19321,44.624056)" />
    <g
       id="g4746"
       transform="matrix(0.0978462,0,0,0.0978462,118.19321,44.624056)" />
    <g
       id="g4748"
       transform="matrix(0.0978462,0,0,0.0978462,118.19321,44.624056)" />
    <g
       id="g4750"
       transform="matrix(0.0978462,0,0,0.0978462,118.19321,44.624056)" />
    <g
       id="g4752"
       transform="matrix(0.0978462,0,0,0.0978462,118.19321,44.624056)" />
    <g
       id="g4754"
       transform="matrix(0.0978462,0,0,0.0978462,118.19321,44.624056)" />
    <g
       id="g4756"
       transform="matrix(0.0978462,0,0,0.0978462,118.19321,44.624056)" />
    <g
       id="g4758"
       transform="matrix(0.0978462,0,0,0.0978462,118.19321,44.624056)" />
  </g>
  <g
     transform="matrix(1.1721651,0,0,1.1724148,-166.31096,-54.025534)"
     id="layer2">
    <g
       id="g4687"
       transform="matrix(0.19614336,0,0,0.19614336,120.13189,31.082196)">
      <g
         id="g4626"
         style="fill:#ffffff;fill-opacity:1"
         transform="matrix(0.29770262,0,0,0.29770262,85.858054,37.967116)">
        <path
           id="path4616"
           d="m 198.948,185.703 -17.742,-6.543 c -14.364,-5.297 -25.687,-16.619 -30.983,-30.982 l -6.544,-17.743 c -0.246,-0.667 -0.882,-1.11 -1.593,-1.11 -0.711,0 -1.347,0.443 -1.593,1.11 l -6.544,17.742 c -5.297,14.364 -16.62,25.686 -30.983,30.983 l -17.743,6.543 c -0.667,0.246 -1.11,0.882 -1.11,1.593 0,0.711 0.443,1.347 1.11,1.593 l 17.744,6.545 c 14.363,5.297 25.685,16.619 30.982,30.982 l 6.544,17.744 c 0.246,0.667 0.882,1.11 1.593,1.11 0.711,0 1.347,-0.443 1.593,-1.11 l 6.544,-17.744 c 5.297,-14.363 16.619,-25.686 30.982,-30.982 l 17.744,-6.545 c 0.667,-0.246 1.11,-0.882 1.11,-1.593 0,-0.711 -0.444,-1.347 -1.111,-1.593 z"
           style="fill:#ffffff;fill-opacity:1" />
      </g>
      <g
         id="g4628" />
      <g
         id="g4630" />
      <g
         id="g4632" />
      <g
         id="g4634" />
      <g
         id="g4636" />
      <g
         id="g4638" />
      <g
         id="g4640" />
      <g
         id="g4642" />
      <g
         id="g4644" />
      <g
         id="g4646" />
      <g
         id="g4648" />
      <g
         id="g4650" />
      <g
         id="g4652" />
      <g
         id="g4654" />
      <g
         id="g4656" />
    </g>
  </g>
</svg>
