<?xml version="1.0" encoding="UTF-8" standalone="no"?>
<svg
   xmlnsDc="http://purl.org/dc/elements/1.1/"
   xmlnscc="http://creativecommons.org/ns#"
   xmlnsRdf="http://www.w3.org/1999/02/22-rdf-syntax-ns#"
   xmlnsSvg="http://www.w3.org/2000/svg"
   xmlns="http://www.w3.org/2000/svg"
   width="30"
   height="30"
   viewBox="0 0 7.9374998 7.9375002"
   version="1.1"
   id="svg8">
  <defs
     id="defs2" />
  <metadata
     id="metadata5">
    <rdfRDF>
      <ccWork
         rdfAbout="">
        <dcFormat>image/svg+xml</dcFormat>
        <dcType
           rdfResource="http://purl.org/dc/dcmitype/StillImage" />
        <dcTitle></dcTitle>
      </ccWork>
    </rdfRDF>
  </metadata>
  <g
     id="layer1"
     transform="translate(0,-289.06248)">
    <g
       id="g4730"
       transform="matrix(0.0978462,0,0,0.0978462,118.19321,44.624056)" />
    <g
       id="g4732"
       transform="matrix(0.0978462,0,0,0.0978462,118.19321,44.624056)" />
    <g
       id="g4734"
       transform="matrix(0.0978462,0,0,0.0978462,118.19321,44.624056)" />
    <g
       id="g4736"
       transform="matrix(0.0978462,0,0,0.0978462,118.19321,44.624056)" />
    <g
       id="g4738"
       transform="matrix(0.0978462,0,0,0.0978462,118.19321,44.624056)" />
    <g
       id="g4740"
       transform="matrix(0.0978462,0,0,0.0978462,118.19321,44.624056)" />
    <g
       id="g4742"
       transform="matrix(0.0978462,0,0,0.0978462,118.19321,44.624056)" />
    <g
       id="g4744"
       transform="matrix(0.0978462,0,0,0.0978462,118.19321,44.624056)" />
    <g
       id="g4746"
       transform="matrix(0.0978462,0,0,0.0978462,118.19321,44.624056)" />
    <g
       id="g4748"
       transform="matrix(0.0978462,0,0,0.0978462,118.19321,44.624056)" />
    <g
       id="g4750"
       transform="matrix(0.0978462,0,0,0.0978462,118.19321,44.624056)" />
    <g
       id="g4752"
       transform="matrix(0.0978462,0,0,0.0978462,118.19321,44.624056)" />
    <g
       id="g4754"
       transform="matrix(0.0978462,0,0,0.0978462,118.19321,44.624056)" />
    <g
       id="g4756"
       transform="matrix(0.0978462,0,0,0.0978462,118.19321,44.624056)" />
    <g
       id="g4758"
       transform="matrix(0.0978462,0,0,0.0978462,118.19321,44.624056)" />
  </g>
  <g
     style="fill:#b9dcf9;fill-opacity:1"
     id="layer2"
     transform="translate(0,-289.06248)">
    <path
       style="fill:#b9dcf9;fill-opacity:1;stroke:#000000;stroke-width:0.47210953;stroke-linecap:butt;stroke-linejoin:miter;stroke-miterlimit:4;stroke-dasharray:none;stroke-opacity:0"
       d="m 3.9585541,289.41072 c -0.6732668,0.71811 -1.0616443,1.43624 -1.3417857,2.15435 -0.7519031,0.37043 -1.5037951,0.79567 -2.25569828,1.46072 0.75190318,0.63793 1.50379518,0.97696 2.25569828,1.22085 0.3037923,0.79681 0.6226737,1.59361 1.3455663,2.39042 0.6545084,-0.79681 1.0658028,-1.59361 1.325785,-2.39042 0.7572515,-0.22224 1.5144807,-0.67313 2.2716988,-1.22464 -0.7572181,-0.6675 -1.5144473,-1.15293 -2.2716766,-1.45694 -0.3311349,-0.69 -0.6177256,-1.3688 -1.3295878,-2.15434 z"
       id="path4529" />
  </g>
</svg>
