<svg width="360" height="360" viewBox="0 0 360 360" fill="none" xmlns="http://www.w3.org/2000/svg">
  <defs>
    <mask id="mask1" style="mask-type:alpha" maskUnits="userSpaceOnUse" x="0" y="0" width="360" height="360">
      <g>
        <path d="M51.3222 145.042L34.2148 151.736L24.5454 146.53V141.323L26.033 136.116V130.166L20.8263 129.422V127.191L24.5454 121.984V119.009L17.1073 121.984L17.8511 111.571L34.9586 88.513L39.4214 87.7692L40.909 98.9262L47.6032 84.794L60.9916 72.8932L80.3305 55.0419C85.0412 52.5626 94.6115 47.6039 95.2065 47.6039C95.8016 47.6039 98.9255 44.6287 100.413 43.1411L98.9255 40.9097L93.7189 43.1411L98.9255 37.9345H113.058L120.496 31.9841L110.826 24.5461L115.289 21.5709L110.826 19.3395L81.8181 39.4221L85.5371 34.2155L84.0495 26.0337L74.3801 16.3643L12.6445 101.158V123.472L15.6197 124.959L14.8759 129.422L20.0825 139.835L21.5702 150.249L32.7272 158.43L25.2892 177.769L38.6776 225.373L53.5536 239.505C57.2726 264.794 60.9916 284.133 86.2809 318.348L95.9503 325.786L107.851 330.249L94.4627 318.348L89.9999 304.959V299.009L110.083 272.976V256.612L131.653 246.199L133.14 229.092L134.628 220.91L146.529 206.034L139.835 194.877L100.413 182.232L93.7189 165.125L51.3222 145.042Z" fill="white" />
        <path d="M121.24 14.8762L130.165 7.43821L134.628 2.23159L145.041 1.48779L130.165 14.1324L119.752 19.339L121.24 14.8762Z" fill="white" />
        <path d="M152.479 5.20657L154.71 -4.02927e-05L182.975 -2.23145L180.743 8.92558L162.892 11.157L149.504 20.8264L142.81 14.876L153.967 7.43798L152.479 5.20657Z" fill="white" />
        <path d="M189.669 11.1572L180.744 11.901L183.719 15.62L192.644 14.8762V11.901L189.669 11.1572Z" fill="white" />
        <path d="M206.033 29.752L211.984 22.314L221.653 29.752L227.603 35.7024L217.934 37.9338L218.678 31.2396L212.727 26.7768V29.752L213.471 34.2148H206.777L206.033 29.752Z" fill="white" />
        <path d="M200.827 110.083L226.116 72.8924L260.331 69.1734C264.794 72.8924 273.868 80.3305 274.463 80.3305C275.058 80.3305 283.141 84.7933 287.108 87.0247L287.851 79.5867L293.058 80.3305L294.546 82.5619H301.24L302.727 86.2809H312.397V80.3305L305.703 71.4048L294.546 69.9172L284.132 58.7602L281.901 60.2478L285.62 66.1982C285.124 67.19 283.984 69.1734 283.389 69.1734C282.794 69.1734 278.678 62.7272 276.694 59.504L258.843 46.8594L255.124 48.347L273.719 61.7354L272.232 66.1982L249.918 49.0908L240.992 52.066L235.042 67.6858L216.446 66.942L213.471 52.8098L230.579 54.2974V47.6032L226.116 42.3966L235.042 31.9834L246.199 31.2396L252.893 29.752L252.149 26.0329L238.761 15.6197L232.066 12.6445V15.6197L245.455 27.5205L242.48 28.2644L232.066 21.5701L229.091 23.8015L221.653 17.1073L224.628 13.3883L223.141 4.4627L265.537 2.9751L348.099 96.6941C347.108 100.165 345.124 106.959 345.124 106.364C345.124 105.768 335.703 94.7106 330.992 89.2561L328.761 90.7437L336.199 101.157L349.587 113.058L348.099 132.397L345.124 136.859L327.273 106.364L316.116 91.4875L313.885 92.9751L325.042 106.364L333.967 122.727L346.612 147.273H351.818L351.075 169.587L348.099 182.975L342.149 191.157L340.661 226.116L327.273 242.479L325.042 252.149L301.984 280.413L283.389 286.363L284.132 246.198L282.645 236.529L290.827 219.421L288.595 213.471L287.851 204.545L281.901 188.925V168.843L264.05 156.942L245.455 162.892L226.86 165.868L200.827 140.578V110.083Z" fill="white" />
        <path d="M342.148 232.81L348.842 220.166L346.611 233.554C344.38 238.761 339.917 249.323 339.917 249.918C339.917 250.513 335.454 254.628 333.223 256.612L342.148 232.81Z" fill="white" />
        <path d="M140.578 351.074L132.397 343.636L131.653 342.892V348.099L137.603 357.024L136.859 362.231L162.149 364.462L234.297 360.743L240.248 350.33L210.496 351.074L188.926 352.562L177.769 357.024L164.38 357.768L150.992 356.281L140.578 351.074Z" fill="white"/>
      </g>
    </mask>     
  </defs>

  <circle cx="180" cy="180" r="180" fill="#1281BF" />
  <circle cx="180" cy="180" r="180" fill="#00BA2F" mask="url(#mask1)" />
</svg>
